<?xml version="1.0" encoding="utf-8"?>
<!-- Generator: Adobe Illustrator 23.1.0, SVG Export Plug-In . SVG Version: 6.00 Build 0)  -->
<svg version="1.1" id="Calque_1" xmlns="http://www.w3.org/2000/svg" xmlns:xlink="http://www.w3.org/1999/xlink" x="0px" y="0px"
	 viewBox="0 0 1000 1000" style="enable-background:new 0 0 1000 1000;" xml:space="preserve">
<style type="text/css">
	.st0{fill:none;stroke:#000000;stroke-width:1.5;stroke-miterlimit:10;}
	.st1{fill:none;stroke:#D5A02F;stroke-width:1.5;stroke-miterlimit:10;}
	.st2{fill:#020203;}
</style>
<path class="st0" d="M480.9,454.55"/>
<path class="st0" d="M483.65,454.55"/>
<polygon class="st1" points="540.66,456.28 483.89,513.04 426.64,456.28 483.4,399.51 "/>
<path class="st0" d="M474.79,430.5l2.5,0.04c0,0,0.05,34.92,0.08,38.11c0,0,0,0,13.62-0.05c3.65-0.01,6.41-2.71,6.46-6.48
	c0.16-10.15-9.75-9.51-9.75-9.51l-10.31,0.09l-6.82,0.06v22.22c0,0,1.34,0.03,21.44,0.03c5.7,0,11.74-4.04,12.5-11.75
	c0-9.41-3.16-16.66-17.1-17.13v-1.62c4.61-0.38,7.27-3.54,7.75-9.57c-0.13-7.55-6.23-9.54-12.55-9.55
	c-6.33-0.01-12.04-0.02-12.04-0.02v17.07"/>
<polygon class="st1" points="540.66,445.64 483.89,502.41 426.64,445.64 483.4,388.88 "/>
<g>
	<path d="M411.36,527.91c0.96,0,1.77,0.11,2.44,0.34c0.67,0.23,1.21,0.53,1.64,0.92s0.73,0.83,0.92,1.35
		c0.19,0.52,0.28,1.07,0.28,1.66c0,1.12-0.25,2-0.75,2.62c-0.5,0.63-1.18,1.06-2.06,1.31c1.4,0.19,2.44,0.65,3.13,1.35
		c0.68,0.71,1.03,1.7,1.03,2.99c0,0.72-0.11,1.36-0.34,1.94c-0.23,0.58-0.59,1.07-1.08,1.49c-0.5,0.42-1.13,0.74-1.89,0.96
		c-0.76,0.23-1.68,0.34-2.76,0.34h-5.64c-0.26,0-0.43-0.03-0.51-0.1c-0.08-0.07-0.12-0.22-0.12-0.46v-15.6h-0.71
		c-0.33-0.07-0.55-0.17-0.68-0.32c-0.13-0.15-0.19-0.32-0.19-0.51c0-0.13,0.04-0.21,0.11-0.24c0.07-0.03,0.21-0.05,0.4-0.05H411.36z
		 M407.16,529.23v6.32h4.25c1.19,0,2.09-0.28,2.7-0.84c0.61-0.56,0.92-1.35,0.92-2.36c0-0.44-0.07-0.85-0.2-1.22
		c-0.13-0.37-0.35-0.7-0.66-0.99c-0.31-0.29-0.72-0.51-1.23-0.67c-0.51-0.16-1.14-0.24-1.89-0.24H407.16z M407.16,536.85v7.03h4.49
		c0.85,0,1.57-0.09,2.17-0.26c0.6-0.17,1.09-0.41,1.47-0.71c0.37-0.3,0.65-0.67,0.82-1.1c0.17-0.43,0.26-0.91,0.26-1.45
		c0-1.2-0.4-2.09-1.2-2.66c-0.8-0.57-1.97-0.85-3.51-0.85H407.16z"/>
	<path d="M439.41,536.58c0,1.29-0.17,2.47-0.52,3.56c-0.35,1.09-0.9,2.03-1.64,2.83c-0.74,0.8-1.68,1.42-2.82,1.87
		c-1.14,0.45-2.5,0.67-4.08,0.67c-1.56,0-2.91-0.22-4.05-0.67c-1.14-0.45-2.08-1.07-2.83-1.87c-0.75-0.8-1.3-1.74-1.66-2.83
		c-0.36-1.09-0.54-2.28-0.54-3.56c0-1.3,0.18-2.51,0.55-3.63c0.37-1.11,0.93-2.08,1.68-2.89c0.75-0.81,1.7-1.45,2.83-1.92
		c1.13-0.46,2.47-0.7,4.02-0.7s2.89,0.23,4.03,0.7c1.14,0.46,2.08,1.1,2.82,1.92s1.29,1.78,1.66,2.89
		C439.23,534.07,439.41,535.28,439.41,536.58z M422.86,536.56c0,1.01,0.13,1.97,0.4,2.89c0.27,0.92,0.7,1.73,1.29,2.43
		c0.59,0.7,1.37,1.26,2.32,1.68c0.95,0.42,2.11,0.63,3.48,0.63c1.37,0,2.53-0.21,3.48-0.63c0.95-0.42,1.73-0.98,2.32-1.68
		c0.59-0.7,1.03-1.51,1.29-2.43c0.27-0.92,0.4-1.88,0.4-2.89c0-1.03-0.14-2.01-0.4-2.94c-0.27-0.94-0.7-1.76-1.29-2.48
		c-0.59-0.72-1.37-1.29-2.32-1.72c-0.95-0.43-2.11-0.65-3.48-0.65c-1.37,0-2.53,0.22-3.48,0.65c-0.95,0.43-1.72,1-2.32,1.72
		c-0.59,0.72-1.03,1.54-1.29,2.48C422.99,534.55,422.86,535.53,422.86,536.56z"/>
	<path d="M445.64,539.51c0,0.65,0.09,1.26,0.27,1.83c0.18,0.57,0.46,1.07,0.86,1.5c0.39,0.43,0.89,0.77,1.51,1.01
		c0.62,0.24,1.36,0.37,2.22,0.37c0.94,0,1.74-0.12,2.38-0.37c0.64-0.24,1.17-0.58,1.57-1.01c0.41-0.43,0.7-0.93,0.88-1.5
		c0.18-0.57,0.27-1.18,0.27-1.83v-10.47h-0.68c-0.33-0.07-0.56-0.17-0.7-0.32c-0.14-0.15-0.21-0.32-0.21-0.51
		c0-0.13,0.04-0.21,0.11-0.24c0.07-0.03,0.21-0.05,0.4-0.05h1.93c0.33,0,0.52,0.04,0.59,0.12c0.06,0.08,0.1,0.27,0.1,0.56v10.94
		c0,0.88-0.13,1.69-0.39,2.43c-0.26,0.74-0.66,1.37-1.2,1.89c-0.54,0.52-1.22,0.93-2.06,1.22c-0.84,0.29-1.84,0.44-2.99,0.44
		c-1.09,0-2.04-0.15-2.85-0.44c-0.8-0.29-1.47-0.7-1.99-1.22c-0.52-0.52-0.91-1.15-1.17-1.89c-0.26-0.74-0.39-1.55-0.39-2.43v-10.5
		h-0.68c-0.33-0.07-0.55-0.17-0.68-0.32c-0.13-0.15-0.19-0.32-0.19-0.51c0-0.13,0.03-0.21,0.1-0.24c0.06-0.03,0.19-0.05,0.39-0.05
		h1.93c0.33,0,0.52,0.04,0.59,0.12c0.07,0.08,0.1,0.27,0.1,0.56V539.51z"/>
	<path d="M461.58,536.73c0-2.93,0.79-5.21,2.36-6.85c1.57-1.64,3.92-2.45,7.04-2.45c1.2,0,2.23,0.12,3.06,0.37
		c0.84,0.24,1.46,0.55,1.87,0.9c0.19,0.18,0.32,0.35,0.39,0.5c0.07,0.15,0.1,0.32,0.1,0.5c0,0.18-0.04,0.28-0.11,0.3
		c-0.07,0.02-0.25-0.03-0.52-0.16c-0.24-0.11-0.52-0.24-0.82-0.37c-0.3-0.13-0.64-0.25-1.01-0.35c-0.37-0.11-0.8-0.2-1.28-0.27
		c-0.48-0.07-1.02-0.11-1.62-0.11c-1.37,0-2.55,0.19-3.54,0.59c-0.99,0.39-1.81,0.94-2.45,1.64c-0.64,0.7-1.11,1.54-1.42,2.52
		c-0.3,0.98-0.45,2.06-0.45,3.25c0,1.14,0.15,2.17,0.44,3.09c0.29,0.92,0.76,1.7,1.39,2.36c0.63,0.65,1.45,1.15,2.44,1.5
		c0.99,0.35,2.19,0.52,3.59,0.52c0.6,0,1.14-0.02,1.61-0.07c0.47-0.05,0.91-0.12,1.31-0.21c0.4-0.09,0.78-0.2,1.14-0.32
		c0.36-0.12,0.72-0.26,1.1-0.4c0.18-0.08,0.3-0.1,0.35-0.05c0.06,0.05,0.09,0.15,0.09,0.29c0,0.28-0.09,0.51-0.27,0.71
		c-0.34,0.37-0.99,0.7-1.93,0.96c-0.94,0.27-2.11,0.4-3.49,0.4c-3.08,0-5.4-0.73-6.98-2.2
		C462.37,541.85,461.58,539.66,461.58,536.73z"/>
	<path d="M479.16,528.21c0-0.13,0.04-0.21,0.11-0.24c0.07-0.03,0.2-0.05,0.38-0.05h2c0.28,0,0.45,0.04,0.52,0.11
		c0.07,0.07,0.11,0.25,0.11,0.52v6.98h10.08v-6.98c0-0.28,0.04-0.45,0.11-0.52c0.07-0.07,0.24-0.11,0.5-0.11h0.29
		c0.28,0,0.45,0.04,0.52,0.11c0.07,0.07,0.11,0.25,0.11,0.52v16.09c0,0.23-0.04,0.38-0.12,0.45c-0.08,0.07-0.24,0.11-0.46,0.11
		h-0.39c-0.23,0-0.38-0.04-0.45-0.11c-0.07-0.07-0.11-0.22-0.11-0.45v-7.81h-10.08v7.81c0,0.23-0.04,0.38-0.11,0.45
		c-0.07,0.07-0.22,0.11-0.45,0.11h-0.42c-0.23,0-0.38-0.04-0.45-0.11c-0.07-0.07-0.11-0.22-0.11-0.45v-15.6h-0.71
		c-0.33-0.07-0.55-0.17-0.68-0.32C479.22,528.57,479.16,528.4,479.16,528.21z"/>
	<path d="M498.27,528.21c0-0.13,0.04-0.21,0.11-0.24c0.07-0.03,0.21-0.05,0.4-0.05h10.89c0.18,0,0.3,0.01,0.38,0.04
		c0.07,0.02,0.11,0.1,0.11,0.23c0,0.28-0.12,0.52-0.34,0.73c-0.23,0.21-0.6,0.32-1.12,0.32h-7.3v6.32h6.71
		c0.18,0,0.31,0.01,0.38,0.04c0.07,0.02,0.11,0.1,0.11,0.23c0,0.28-0.11,0.52-0.34,0.72c-0.23,0.2-0.6,0.3-1.12,0.3h-5.74v7.03h8.01
		c0.26,0,0.43,0.03,0.5,0.1c0.07,0.07,0.11,0.2,0.11,0.42v0.29c0,0.23-0.04,0.37-0.11,0.43c-0.07,0.06-0.24,0.09-0.5,0.09h-8.89
		c-0.28,0-0.46-0.03-0.54-0.1c-0.08-0.07-0.12-0.22-0.12-0.46v-15.6h-0.71c-0.33-0.07-0.55-0.17-0.68-0.32
		C498.34,528.57,498.27,528.4,498.27,528.21z"/>
	<path d="M527.44,527.91c0.96,0,1.77,0.11,2.44,0.34c0.67,0.23,1.21,0.53,1.64,0.92c0.42,0.38,0.73,0.83,0.92,1.35
		c0.19,0.52,0.28,1.07,0.28,1.66c0,1.12-0.25,2-0.75,2.62c-0.5,0.63-1.18,1.06-2.06,1.31c1.4,0.19,2.44,0.65,3.13,1.35
		c0.68,0.71,1.03,1.7,1.03,2.99c0,0.72-0.11,1.36-0.34,1.94c-0.23,0.58-0.59,1.07-1.08,1.49c-0.5,0.42-1.13,0.74-1.89,0.96
		c-0.76,0.23-1.68,0.34-2.76,0.34h-5.64c-0.26,0-0.43-0.03-0.51-0.1c-0.08-0.07-0.12-0.22-0.12-0.46v-15.6H521
		c-0.33-0.07-0.55-0.17-0.68-0.32c-0.13-0.15-0.19-0.32-0.19-0.51c0-0.13,0.04-0.21,0.11-0.24c0.07-0.03,0.21-0.05,0.4-0.05H527.44z
		 M523.25,529.23v6.32h4.25c1.19,0,2.09-0.28,2.7-0.84c0.61-0.56,0.92-1.35,0.92-2.36c0-0.44-0.07-0.85-0.2-1.22
		c-0.13-0.37-0.35-0.7-0.66-0.99c-0.31-0.29-0.72-0.51-1.23-0.67c-0.51-0.16-1.14-0.24-1.89-0.24H523.25z M523.25,536.85v7.03h4.49
		c0.85,0,1.57-0.09,2.17-0.26c0.6-0.17,1.09-0.41,1.47-0.71c0.37-0.3,0.65-0.67,0.82-1.1c0.17-0.43,0.26-0.91,0.26-1.45
		c0-1.2-0.4-2.09-1.2-2.66c-0.8-0.57-1.97-0.85-3.51-0.85H523.25z"/>
	<path d="M537.11,528.21c0-0.13,0.03-0.21,0.1-0.24c0.07-0.03,0.2-0.05,0.39-0.05h10.89c0.2,0,0.33,0.01,0.39,0.04
		c0.07,0.02,0.1,0.1,0.1,0.23c0,0.28-0.11,0.52-0.34,0.73c-0.23,0.21-0.59,0.32-1.1,0.32h-7.32v6.32h6.71
		c0.19,0,0.33,0.01,0.39,0.04c0.06,0.02,0.1,0.1,0.1,0.23c0,0.28-0.12,0.52-0.34,0.72c-0.23,0.2-0.59,0.3-1.1,0.3h-5.76v7.03h8.01
		c0.26,0,0.43,0.03,0.5,0.1c0.07,0.07,0.11,0.2,0.11,0.42v0.29c0,0.23-0.04,0.37-0.11,0.43c-0.07,0.06-0.24,0.09-0.5,0.09h-8.89
		c-0.28,0-0.45-0.03-0.54-0.1c-0.08-0.07-0.12-0.22-0.12-0.46v-15.6h-0.68c-0.33-0.07-0.55-0.17-0.68-0.32
		C537.18,528.57,537.11,528.4,537.11,528.21z M544.29,523.79c0.08-0.08,0.15-0.15,0.22-0.2c0.06-0.05,0.16-0.07,0.29-0.07h0.9
		c0.18,0,0.28,0.04,0.32,0.13c0.03,0.09-0.02,0.2-0.15,0.33l-2.61,2.61c-0.13,0.11-0.29,0.17-0.49,0.17h-0.73
		c-0.23,0-0.27-0.1-0.12-0.29L544.29,523.79z"/>
	<path d="M551.37,528.21c0-0.13,0.04-0.21,0.11-0.24c0.07-0.03,0.21-0.05,0.4-0.05h10.89c0.18,0,0.3,0.01,0.38,0.04
		c0.07,0.02,0.11,0.1,0.11,0.23c0,0.28-0.12,0.52-0.34,0.73c-0.23,0.21-0.6,0.32-1.12,0.32h-7.3v6.32h6.71
		c0.18,0,0.31,0.01,0.38,0.04c0.07,0.02,0.11,0.1,0.11,0.23c0,0.28-0.11,0.52-0.34,0.72c-0.23,0.2-0.6,0.3-1.12,0.3h-5.74v7.03h8.01
		c0.26,0,0.43,0.03,0.5,0.1c0.07,0.07,0.11,0.2,0.11,0.42v0.29c0,0.23-0.04,0.37-0.11,0.43c-0.07,0.06-0.24,0.09-0.5,0.09h-8.89
		c-0.28,0-0.46-0.03-0.54-0.1c-0.08-0.07-0.12-0.22-0.12-0.46v-15.6h-0.71c-0.33-0.07-0.55-0.17-0.68-0.32
		C551.43,528.57,551.37,528.4,551.37,528.21z"/>
</g>
<path class="st0" d="M417.42,425.27"/>
<path class="st0" d="M420.16,425.27"/>
<g>
	<path class="st2" d="M436.98,553.31l-0.05,0.22h-2.65v8.39H434v-8.39h-2.68l-0.04-0.05l0.05-0.22h5.6L436.98,553.31z"/>
	<path class="st2" d="M443.7,561.85v0.05c-0.05,0.05-0.1,0.08-0.16,0.11l-0.08-0.03c-0.97-1.27-1.8-2.48-2.5-3.64h-1.82v3.58h-0.27
		v-8.66l1.92-0.03c0.79,0,1.4,0.2,1.82,0.61c0.43,0.41,0.64,1,0.64,1.77c0,0.67-0.17,1.24-0.52,1.69c-0.34,0.46-0.84,0.79-1.48,0.99
		C441.94,559.44,442.76,560.63,443.7,561.85z M439.13,558.07h1.93c0.61-0.15,1.08-0.44,1.41-0.87s0.5-0.96,0.5-1.59
		c0-0.67-0.18-1.19-0.54-1.55c-0.36-0.36-0.88-0.54-1.55-0.54h-1.74V558.07z"/>
	<path class="st2" d="M451.56,561.92h-0.31l-0.18-0.58l-0.86-2.31h-4.11l-0.93,2.31l-0.19,0.58h-0.33l3.45-8.66h0.27L451.56,561.92z
		 M448.27,553.72h-0.06l-2,5.03h3.9L448.27,553.72z"/>
	<path class="st2" d="M453.71,561.92h-0.27v-8.66h0.27V561.92z"/>
	<path class="st2" d="M461.01,553.31l-0.05,0.22h-2.65v8.39h-0.27v-8.39h-2.68l-0.04-0.05l0.05-0.22h5.6L461.01,553.31z"/>
	<path class="st2" d="M467.17,561.7l-0.06,0.22h-4.23v-8.66h4.19l0.04,0.05l-0.05,0.22h-3.9v3.77h3.24l0.04,0.05l-0.05,0.22h-3.22
		v4.08h3.97L467.17,561.7z"/>
	<path class="st2" d="M474.72,558.8c0.03,1-0.22,1.77-0.75,2.33c-0.53,0.56-1.27,0.84-2.24,0.84c-0.97,0-1.71-0.27-2.22-0.82
		c-0.51-0.54-0.77-1.33-0.77-2.35v-5.55H469v5.55c-0.01,0.93,0.22,1.65,0.69,2.15c0.47,0.5,1.15,0.75,2.03,0.75
		c0.88,0,1.55-0.25,2.02-0.75c0.47-0.5,0.7-1.21,0.7-2.15v-5.55h0.27V558.8z"/>
	<path class="st2" d="M482.22,561.85v0.05c-0.05,0.05-0.1,0.08-0.16,0.11l-0.08-0.03c-0.97-1.27-1.8-2.48-2.5-3.64h-1.82v3.58h-0.27
		v-8.66l1.92-0.03c0.79,0,1.4,0.2,1.82,0.61c0.43,0.41,0.64,1,0.64,1.77c0,0.67-0.17,1.24-0.52,1.69c-0.35,0.46-0.84,0.79-1.48,0.99
		C480.47,559.44,481.29,560.63,482.22,561.85z M477.65,558.07h1.93c0.61-0.15,1.08-0.44,1.41-0.87s0.5-0.96,0.5-1.59
		c0-0.67-0.18-1.19-0.54-1.55c-0.36-0.36-0.88-0.54-1.55-0.54h-1.74V558.07z"/>
	<path class="st2" d="M491.16,561.7l-0.06,0.22h-4.23v-8.66h4.19l0.04,0.05l-0.05,0.22h-3.9v3.77h3.24l0.04,0.05l-0.05,0.22h-3.22
		v4.08h3.97L491.16,561.7z"/>
	<path class="st2" d="M499.15,559.52l-0.01,2.39h-0.26l-5.49-8.09h-0.06l-0.01,5.39v2.71h-0.27v-2.58l0.01-6.08h0.26l5.49,8.09h0.05
		l0.03-8.08l0.27-0.03L499.15,559.52z"/>
	<path class="st2" d="M508.11,553.61l-0.05,0.24l-0.1,0.01c-0.25-0.13-0.52-0.22-0.79-0.29c-0.27-0.06-0.52-0.1-0.75-0.1
		c-0.44,0-0.82,0.09-1.14,0.28s-0.58,0.43-0.75,0.72c-0.17,0.29-0.26,0.6-0.26,0.9c0,0.32,0.09,0.59,0.26,0.82
		c0.17,0.23,0.38,0.42,0.63,0.57c0.25,0.15,0.6,0.33,1.04,0.55c0.49,0.24,0.88,0.46,1.16,0.64c0.29,0.18,0.53,0.42,0.73,0.7
		s0.31,0.63,0.31,1.04c0,0.4-0.11,0.77-0.33,1.12c-0.22,0.35-0.52,0.63-0.9,0.83c-0.39,0.2-0.82,0.31-1.3,0.31
		c-0.35,0-0.72-0.05-1.09-0.16c-0.37-0.11-0.7-0.27-0.98-0.48l0.01-0.26l0.07-0.03c0.27,0.22,0.58,0.38,0.94,0.49
		c0.35,0.11,0.7,0.16,1.03,0.16c0.44,0,0.84-0.1,1.19-0.29c0.35-0.19,0.62-0.44,0.8-0.74c0.19-0.3,0.28-0.62,0.28-0.96
		c0-0.34-0.09-0.64-0.27-0.88c-0.18-0.24-0.4-0.45-0.66-0.61c-0.26-0.16-0.61-0.35-1.07-0.57c-0.48-0.24-0.86-0.44-1.14-0.62
		c-0.28-0.18-0.51-0.4-0.71-0.68c-0.19-0.28-0.29-0.61-0.29-1c0-0.39,0.1-0.75,0.31-1.07c0.21-0.33,0.5-0.58,0.87-0.78
		c0.37-0.19,0.79-0.29,1.26-0.29C507,553.21,507.55,553.34,508.11,553.61z"/>
	<path class="st2" d="M514.68,553.41c0.42,0.14,0.79,0.34,1.13,0.59l-0.1,0.23h-0.1c-0.31-0.25-0.65-0.43-1.03-0.56
		c-0.38-0.13-0.77-0.2-1.18-0.2c-1.08,0-1.9,0.36-2.47,1.07c-0.57,0.72-0.86,1.74-0.86,3.07c0,1.31,0.27,2.33,0.82,3.03
		c0.54,0.71,1.33,1.06,2.35,1.06c0.43,0,0.87-0.08,1.3-0.24c0.43-0.16,0.83-0.38,1.19-0.67l0.1,0.03l-0.03,0.24
		c-0.38,0.29-0.79,0.51-1.24,0.67c-0.44,0.16-0.88,0.24-1.31,0.24c-1.11,0-1.97-0.38-2.56-1.14c-0.59-0.76-0.89-1.84-0.89-3.24
		c0-1.41,0.31-2.5,0.93-3.26s1.51-1.14,2.67-1.14C513.84,553.2,514.27,553.27,514.68,553.41z"/>
	<path class="st2" d="M522.05,561.7l-0.05,0.22h-4.23v-8.66h4.19l0.04,0.05l-0.05,0.22h-3.9v3.77h3.24l0.04,0.05l-0.06,0.22h-3.22
		v4.08h3.97L522.05,561.7z M521.14,551.82l-0.1,0.2l-0.07,0.04c-0.97-0.5-1.76-0.92-2.37-1.26l-0.03-0.07l0.1-0.16l0.07-0.03
		C519.52,551,520.32,551.43,521.14,551.82z"/>
	<path class="st2" d="M530.05,559.52l-0.01,2.39h-0.26l-5.49-8.09h-0.05l-0.01,5.39v2.71h-0.27v-2.58l0.01-6.08h0.26l5.49,8.09h0.05
		l0.03-8.08l0.27-0.03L530.05,559.52z"/>
	<path class="st2" d="M537.34,561.7l-0.06,0.22h-4.23v-8.66h4.19l0.04,0.05l-0.05,0.22h-3.9v3.77h3.24l0.04,0.05l-0.05,0.22h-3.22
		v4.08h3.97L537.34,561.7z"/>
</g>
</svg>
