<?xml version="1.0" encoding="utf-8"?>
<!-- Generator: Adobe Illustrator 24.0.2, SVG Export Plug-In . SVG Version: 6.00 Build 0)  -->
<svg version="1.1" id="Calque_1" xmlns="http://www.w3.org/2000/svg" xmlns:xlink="http://www.w3.org/1999/xlink" x="0px" y="0px"
	 viewBox="0 0 1000 1000" style="enable-background:new 0 0 1000 1000;" xml:space="preserve">
<style type="text/css">
	.st0{fill:none;stroke:#000000;stroke-width:1.5;stroke-miterlimit:10;}
	.st1{fill:#020203;}
</style>
<g>
	<path d="M411.4,527.9c1,0,1.8,0.1,2.4,0.3c0.7,0.2,1.2,0.5,1.6,0.9s0.7,0.8,0.9,1.3c0.2,0.5,0.3,1.1,0.3,1.7c0,1.1-0.3,2-0.8,2.6
		c-0.5,0.6-1.2,1.1-2.1,1.3c1.4,0.2,2.4,0.7,3.1,1.3c0.7,0.7,1,1.7,1,3c0,0.7-0.1,1.4-0.3,1.9s-0.6,1.1-1.1,1.5
		c-0.5,0.4-1.1,0.7-1.9,1c-0.8,0.2-1.7,0.3-2.8,0.3h-5.6c-0.3,0-0.4,0-0.5-0.1c-0.1-0.1-0.1-0.2-0.1-0.5V529h-0.7
		c-0.3-0.1-0.5-0.2-0.7-0.3s-0.2-0.3-0.2-0.5c0-0.1,0-0.2,0.1-0.2c0.1,0,0.2,0,0.4,0L411.4,527.9L411.4,527.9z M407.2,529.2v6.3h4.3
		c1.2,0,2.1-0.3,2.7-0.8c0.6-0.6,0.9-1.3,0.9-2.4c0-0.4-0.1-0.8-0.2-1.2s-0.4-0.7-0.7-1s-0.7-0.5-1.2-0.7s-1.1-0.2-1.9-0.2
		L407.2,529.2L407.2,529.2z M407.2,536.8v7h4.5c0.9,0,1.6-0.1,2.2-0.3s1.1-0.4,1.5-0.7c0.4-0.3,0.6-0.7,0.8-1.1s0.3-0.9,0.3-1.5
		c0-1.2-0.4-2.1-1.2-2.7c-0.8-0.6-2-0.8-3.5-0.8L407.2,536.8L407.2,536.8z"/>
	<path d="M439.4,536.6c0,1.3-0.2,2.5-0.5,3.6c-0.4,1.1-0.9,2-1.6,2.8c-0.7,0.8-1.7,1.4-2.8,1.9s-2.5,0.7-4.1,0.7
		c-1.6,0-2.9-0.2-4-0.7c-1.1-0.5-2.1-1.1-2.8-1.9s-1.3-1.7-1.7-2.8c-0.4-1.1-0.5-2.3-0.5-3.6c0-1.3,0.2-2.5,0.5-3.6
		c0.4-1.1,0.9-2.1,1.7-2.9s1.7-1.5,2.8-1.9c1.1-0.5,2.5-0.7,4-0.7s2.9,0.2,4,0.7c1.1,0.5,2.1,1.1,2.8,1.9s1.3,1.8,1.7,2.9
		C439.2,534.1,439.4,535.3,439.4,536.6z M422.9,536.6c0,1,0.1,2,0.4,2.9c0.3,0.9,0.7,1.7,1.3,2.4s1.4,1.3,2.3,1.7s2.1,0.6,3.5,0.6
		c1.4,0,2.5-0.2,3.5-0.6s1.7-1,2.3-1.7s1-1.5,1.3-2.4c0.3-0.9,0.4-1.9,0.4-2.9c0-1-0.1-2-0.4-2.9c-0.3-0.9-0.7-1.8-1.3-2.5
		s-1.4-1.3-2.3-1.7s-2.1-0.7-3.5-0.7c-1.4,0-2.5,0.2-3.5,0.7c-1,0.4-1.7,1-2.3,1.7c-0.6,0.7-1,1.5-1.3,2.5
		C423,534.5,422.9,535.5,422.9,536.6z"/>
	<path d="M445.6,539.5c0,0.7,0.1,1.3,0.3,1.8s0.5,1.1,0.9,1.5c0.4,0.4,0.9,0.8,1.5,1s1.4,0.4,2.2,0.4c0.9,0,1.7-0.1,2.4-0.4
		c0.6-0.2,1.2-0.6,1.6-1c0.4-0.4,0.7-0.9,0.9-1.5s0.3-1.2,0.3-1.8V529h-0.7c-0.3-0.1-0.6-0.2-0.7-0.3s-0.2-0.3-0.2-0.5
		c0-0.1,0-0.2,0.1-0.2c0.1,0,0.2,0,0.4,0h1.9c0.3,0,0.5,0,0.6,0.1c0.1,0.1,0.1,0.3,0.1,0.6v10.9c0,0.9-0.1,1.7-0.4,2.4
		s-0.7,1.4-1.2,1.9s-1.2,0.9-2.1,1.2s-1.8,0.4-3,0.4c-1.1,0-2-0.2-2.9-0.4c-0.8-0.3-1.5-0.7-2-1.2c-0.5-0.5-0.9-1.2-1.2-1.9
		s-0.4-1.5-0.4-2.4V529h-0.7c-0.3-0.1-0.5-0.2-0.7-0.3s-0.2-0.3-0.2-0.5c0-0.1,0-0.2,0.1-0.2c0.1,0,0.2,0,0.4,0h1.9
		c0.3,0,0.5,0,0.6,0.1s0.1,0.3,0.1,0.6L445.6,539.5L445.6,539.5z"/>
	<path d="M461.6,536.7c0-2.9,0.8-5.2,2.4-6.8c1.6-1.6,3.9-2.5,7-2.5c1.2,0,2.2,0.1,3.1,0.4c0.8,0.2,1.5,0.5,1.9,0.9
		c0.2,0.2,0.3,0.3,0.4,0.5s0.1,0.3,0.1,0.5s0,0.3-0.1,0.3c-0.1,0-0.3,0-0.5-0.2c-0.2-0.1-0.5-0.2-0.8-0.4c-0.3-0.1-0.6-0.3-1-0.3
		c-0.4-0.1-0.8-0.2-1.3-0.3s-1-0.1-1.6-0.1c-1.4,0-2.5,0.2-3.5,0.6c-1,0.4-1.8,0.9-2.5,1.6s-1.1,1.5-1.4,2.5c-0.3,1-0.5,2.1-0.5,3.3
		c0,1.1,0.1,2.2,0.4,3.1c0.3,0.9,0.8,1.7,1.4,2.4c0.6,0.7,1.5,1.2,2.4,1.5s2.2,0.5,3.6,0.5c0.6,0,1.1,0,1.6-0.1
		c0.5,0,0.9-0.1,1.3-0.2s0.8-0.2,1.1-0.3c0.4-0.1,0.7-0.3,1.1-0.4c0.2-0.1,0.3-0.1,0.4,0c0.1,0,0.1,0.2,0.1,0.3
		c0,0.3-0.1,0.5-0.3,0.7c-0.3,0.4-1,0.7-1.9,1c-0.9,0.3-2.1,0.4-3.5,0.4c-3.1,0-5.4-0.7-7-2.2C462.4,541.8,461.6,539.7,461.6,536.7z
		"/>
	<path d="M479.2,528.2c0-0.1,0-0.2,0.1-0.2c0.1,0,0.2,0,0.4,0h2c0.3,0,0.5,0,0.5,0.1c0.1,0.1,0.1,0.3,0.1,0.5v7h10.1v-7
		c0-0.3,0-0.5,0.1-0.5c0.1-0.1,0.2-0.1,0.5-0.1h0.3c0.3,0,0.5,0,0.5,0.1c0.1,0.1,0.1,0.3,0.1,0.5v16.1c0,0.2,0,0.4-0.1,0.5
		s-0.2,0.1-0.5,0.1h-0.4c-0.2,0-0.4,0-0.5-0.1s-0.1-0.2-0.1-0.5v-7.8h-10.1v7.8c0,0.2,0,0.4-0.1,0.5c-0.1,0.1-0.2,0.1-0.5,0.1h-0.4
		c-0.2,0-0.4,0-0.5-0.1s-0.1-0.2-0.1-0.5V529H480c-0.3-0.1-0.5-0.2-0.7-0.3C479.2,528.6,479.2,528.4,479.2,528.2z"/>
	<path d="M498.3,528.2c0-0.1,0-0.2,0.1-0.2c0.1,0,0.2,0,0.4,0h10.9c0.2,0,0.3,0,0.4,0c0.1,0,0.1,0.1,0.1,0.2c0,0.3-0.1,0.5-0.3,0.7
		c-0.2,0.2-0.6,0.3-1.1,0.3h-7.3v6.3h6.7c0.2,0,0.3,0,0.4,0c0.1,0,0.1,0.1,0.1,0.2c0,0.3-0.1,0.5-0.3,0.7c-0.2,0.2-0.6,0.3-1.1,0.3
		h-5.7v7h8c0.3,0,0.4,0,0.5,0.1c0.1,0.1,0.1,0.2,0.1,0.4v0.3c0,0.2,0,0.4-0.1,0.4c-0.1,0.1-0.2,0.1-0.5,0.1h-8.9
		c-0.3,0-0.5,0-0.5-0.1c-0.1-0.1-0.1-0.2-0.1-0.5V529h-0.7c-0.3-0.1-0.5-0.2-0.7-0.3C498.3,528.6,498.3,528.4,498.3,528.2z"/>
	<path d="M527.4,527.9c1,0,1.8,0.1,2.4,0.3c0.7,0.2,1.2,0.5,1.6,0.9c0.4,0.4,0.7,0.8,0.9,1.3c0.2,0.5,0.3,1.1,0.3,1.7
		c0,1.1-0.3,2-0.8,2.6c-0.5,0.6-1.2,1.1-2.1,1.3c1.4,0.2,2.4,0.7,3.1,1.3c0.7,0.7,1,1.7,1,3c0,0.7-0.1,1.4-0.3,1.9
		c-0.2,0.6-0.6,1.1-1.1,1.5c-0.5,0.4-1.1,0.7-1.9,1c-0.8,0.2-1.7,0.3-2.8,0.3h-5.6c-0.3,0-0.4,0-0.5-0.1c-0.1-0.1-0.1-0.2-0.1-0.5
		V529H521c-0.3-0.1-0.5-0.2-0.7-0.3s-0.2-0.3-0.2-0.5c0-0.1,0-0.2,0.1-0.2c0.1,0,0.2,0,0.4,0L527.4,527.9L527.4,527.9z M523.3,529.2
		v6.3h4.3c1.2,0,2.1-0.3,2.7-0.8s0.9-1.3,0.9-2.4c0-0.4-0.1-0.8-0.2-1.2s-0.3-0.7-0.7-1s-0.7-0.5-1.2-0.7s-1.1-0.2-1.9-0.2
		L523.3,529.2L523.3,529.2z M523.3,536.8v7h4.5c0.8,0,1.6-0.1,2.2-0.3s1.1-0.4,1.5-0.7c0.4-0.3,0.7-0.7,0.8-1.1s0.3-0.9,0.3-1.5
		c0-1.2-0.4-2.1-1.2-2.7c-0.8-0.6-2-0.8-3.5-0.8L523.3,536.8L523.3,536.8z"/>
	<path d="M537.1,528.2c0-0.1,0-0.2,0.1-0.2c0.1,0,0.2,0,0.4,0h10.9c0.2,0,0.3,0,0.4,0c0.1,0,0.1,0.1,0.1,0.2c0,0.3-0.1,0.5-0.3,0.7
		c-0.2,0.2-0.6,0.3-1.1,0.3h-7.3v6.3h6.7c0.2,0,0.3,0,0.4,0c0.1,0,0.1,0.1,0.1,0.2c0,0.3-0.1,0.5-0.3,0.7c-0.2,0.2-0.6,0.3-1.1,0.3
		h-5.8v7h8c0.3,0,0.4,0,0.5,0.1c0.1,0.1,0.1,0.2,0.1,0.4v0.3c0,0.2,0,0.4-0.1,0.4s-0.2,0.1-0.5,0.1h-8.9c-0.3,0-0.5,0-0.5-0.1
		c-0.1-0.1-0.1-0.2-0.1-0.5V529H538c-0.3-0.1-0.5-0.2-0.7-0.3C537.2,528.6,537.1,528.4,537.1,528.2z M544.3,523.8
		c0.1-0.1,0.2-0.2,0.2-0.2c0.1,0,0.2-0.1,0.3-0.1h0.9c0.2,0,0.3,0,0.3,0.1c0,0.1,0,0.2-0.2,0.3l-2.6,2.6c-0.1,0.1-0.3,0.2-0.5,0.2
		H542c-0.2,0-0.3-0.1-0.1-0.3L544.3,523.8z"/>
	<path d="M551.4,528.2c0-0.1,0-0.2,0.1-0.2c0.1,0,0.2,0,0.4,0h10.9c0.2,0,0.3,0,0.4,0c0.1,0,0.1,0.1,0.1,0.2c0,0.3-0.1,0.5-0.3,0.7
		c-0.2,0.2-0.6,0.3-1.1,0.3h-7.3v6.3h6.7c0.2,0,0.3,0,0.4,0c0.1,0,0.1,0.1,0.1,0.2c0,0.3-0.1,0.5-0.3,0.7c-0.2,0.2-0.6,0.3-1.1,0.3
		h-5.7v7h8c0.3,0,0.4,0,0.5,0.1c0.1,0.1,0.1,0.2,0.1,0.4v0.3c0,0.2,0,0.4-0.1,0.4s-0.2,0.1-0.5,0.1h-8.9c-0.3,0-0.5,0-0.5-0.1
		c-0.1-0.1-0.1-0.2-0.1-0.5V529h-0.7c-0.3-0.1-0.5-0.2-0.7-0.3C551.4,528.6,551.4,528.4,551.4,528.2z"/>
</g>
<path class="st0" d="M417.4,425.3"/>
<path class="st0" d="M420.2,425.3"/>
<g>
	<path class="st1" d="M437,553.3l0,0.2h-2.6v8.4H434v-8.4h-2.7l0,0l0-0.2L437,553.3L437,553.3z"/>
	<path class="st1" d="M443.7,561.8L443.7,561.8c0,0.1-0.1,0.1-0.2,0.2l-0.1,0c-1-1.3-1.8-2.5-2.5-3.6h-1.8v3.6h-0.3v-8.7l1.9,0
		c0.8,0,1.4,0.2,1.8,0.6c0.4,0.4,0.6,1,0.6,1.8c0,0.7-0.2,1.2-0.5,1.7c-0.3,0.5-0.8,0.8-1.5,1C441.9,559.4,442.8,560.6,443.7,561.8z
		 M439.1,558.1h1.9c0.6-0.2,1.1-0.4,1.4-0.9s0.5-1,0.5-1.6c0-0.7-0.2-1.2-0.5-1.5c-0.4-0.4-0.9-0.5-1.5-0.5h-1.7L439.1,558.1
		L439.1,558.1z"/>
	<path class="st1" d="M451.6,561.9h-0.3l-0.2-0.6l-0.9-2.3h-4.1l-0.9,2.3l-0.2,0.6h-0.3l3.5-8.7h0.3L451.6,561.9z M448.3,553.7
		L448.3,553.7l-2.1,5h3.9L448.3,553.7z"/>
	<path class="st1" d="M453.7,561.9h-0.3v-8.7h0.3V561.9z"/>
	<path class="st1" d="M461,553.3l0,0.2h-2.6v8.4H458v-8.4h-2.7l0,0l0-0.2L461,553.3L461,553.3z"/>
	<path class="st1" d="M467.2,561.7l-0.1,0.2h-4.2v-8.7h4.2l0,0l0,0.2h-3.9v3.8h3.2l0,0l0,0.2h-3.2v4.1L467.2,561.7L467.2,561.7z"/>
	<path class="st1" d="M474.7,558.8c0,1-0.2,1.8-0.8,2.3s-1.3,0.8-2.2,0.8s-1.7-0.3-2.2-0.8c-0.5-0.5-0.8-1.3-0.8-2.3v-5.5h0.3v5.5
		c0,0.9,0.2,1.7,0.7,2.2s1.1,0.8,2,0.8s1.5-0.3,2-0.8s0.7-1.2,0.7-2.2v-5.5h0.3L474.7,558.8L474.7,558.8z"/>
	<path class="st1" d="M482.2,561.8L482.2,561.8c0,0.1-0.1,0.1-0.2,0.2l-0.1,0c-1-1.3-1.8-2.5-2.5-3.6h-1.8v3.6h-0.3v-8.7l1.9,0
		c0.8,0,1.4,0.2,1.8,0.6c0.4,0.4,0.6,1,0.6,1.8c0,0.7-0.2,1.2-0.5,1.7c-0.4,0.5-0.8,0.8-1.5,1C480.5,559.4,481.3,560.6,482.2,561.8z
		 M477.6,558.1h1.9c0.6-0.2,1.1-0.4,1.4-0.9s0.5-1,0.5-1.6c0-0.7-0.2-1.2-0.5-1.5c-0.4-0.4-0.9-0.5-1.5-0.5h-1.7L477.6,558.1
		L477.6,558.1z"/>
	<path class="st1" d="M491.2,561.7l-0.1,0.2h-4.2v-8.7h4.2l0,0l0,0.2h-3.9v3.8h3.2l0,0l0,0.2h-3.2v4.1L491.2,561.7L491.2,561.7z"/>
	<path class="st1" d="M499.1,559.5l0,2.4h-0.3l-5.5-8.1h-0.1l0,5.4v2.7H493v-2.6l0-6.1h0.3l5.5,8.1h0l0-8.1l0.3,0L499.1,559.5z"/>
	<path class="st1" d="M508.1,553.6l0,0.2l-0.1,0c-0.3-0.1-0.5-0.2-0.8-0.3c-0.3-0.1-0.5-0.1-0.8-0.1c-0.4,0-0.8,0.1-1.1,0.3
		s-0.6,0.4-0.8,0.7s-0.3,0.6-0.3,0.9c0,0.3,0.1,0.6,0.3,0.8s0.4,0.4,0.6,0.6s0.6,0.3,1,0.5c0.5,0.2,0.9,0.5,1.2,0.6
		c0.3,0.2,0.5,0.4,0.7,0.7s0.3,0.6,0.3,1c0,0.4-0.1,0.8-0.3,1.1s-0.5,0.6-0.9,0.8c-0.4,0.2-0.8,0.3-1.3,0.3c-0.4,0-0.7,0-1.1-0.2
		s-0.7-0.3-1-0.5l0-0.3l0.1,0c0.3,0.2,0.6,0.4,0.9,0.5c0.4,0.1,0.7,0.2,1,0.2c0.4,0,0.8-0.1,1.2-0.3s0.6-0.4,0.8-0.7
		c0.2-0.3,0.3-0.6,0.3-1s-0.1-0.6-0.3-0.9s-0.4-0.5-0.7-0.6s-0.6-0.3-1.1-0.6c-0.5-0.2-0.9-0.4-1.1-0.6c-0.3-0.2-0.5-0.4-0.7-0.7
		c-0.2-0.3-0.3-0.6-0.3-1s0.1-0.8,0.3-1.1c0.2-0.3,0.5-0.6,0.9-0.8c0.4-0.2,0.8-0.3,1.3-0.3C507,553.2,507.5,553.3,508.1,553.6z"/>
	<path class="st1" d="M514.7,553.4c0.4,0.1,0.8,0.3,1.1,0.6l-0.1,0.2h-0.1c-0.3-0.3-0.7-0.4-1-0.6s-0.8-0.2-1.2-0.2
		c-1.1,0-1.9,0.4-2.5,1.1c-0.6,0.7-0.9,1.7-0.9,3.1c0,1.3,0.3,2.3,0.8,3c0.5,0.7,1.3,1.1,2.4,1.1c0.4,0,0.9-0.1,1.3-0.2
		s0.8-0.4,1.2-0.7l0.1,0l0,0.2c-0.4,0.3-0.8,0.5-1.2,0.7c-0.4,0.2-0.9,0.2-1.3,0.2c-1.1,0-2-0.4-2.6-1.1s-0.9-1.8-0.9-3.2
		c0-1.4,0.3-2.5,0.9-3.3s1.5-1.1,2.7-1.1C513.8,553.2,514.3,553.3,514.7,553.4z"/>
	<path class="st1" d="M522,561.7l0,0.2h-4.2v-8.7h4.2l0,0l0,0.2H518v3.8h3.2l0,0l-0.1,0.2H518v4.1L522,561.7L522,561.7z
		 M521.1,551.8L521,552l-0.1,0c-1-0.5-1.8-0.9-2.4-1.3l0-0.1l0.1-0.2l0.1,0C519.5,551,520.3,551.4,521.1,551.8z"/>
	<path class="st1" d="M530,559.5l0,2.4h-0.3l-5.5-8.1h0l0,5.4v2.7H524v-2.6l0-6.1h0.3l5.5,8.1h0l0-8.1l0.3,0L530,559.5z"/>
	<path class="st1" d="M537.3,561.7l-0.1,0.2h-4.2v-8.7h4.2l0,0l0,0.2h-3.9v3.8h3.2l0,0l0,0.2h-3.2v4.1L537.3,561.7L537.3,561.7z"/>
</g>
</svg>
